<?xml version="1.0" encoding="utf-8"?>
<!-- Generator: Adobe Illustrator 26.0.1, SVG Export Plug-In . SVG Version: 6.00 Build 0)  -->
<svg version="1.1" id="Layer_1" xmlns="http://www.w3.org/2000/svg" xmlns:xlink="http://www.w3.org/1999/xlink" x="0px" y="0px"
	 viewBox="0 0 1200 1200" style="enable-background:new 0 0 1200 1200;" xml:space="preserve">
<style type="text/css">
	.st0{fill:#57ACE0;}
</style>
<g>
	<g>
		<path class="st0" d="M800.13,431.35c-21.16,0-39.97,0.23-58.77-0.33c-2.09-0.06-5.62-4.52-5.83-7.16
			c-2.8-35.02-15.25-65.65-40.98-89.99c-29.99-28.38-66.02-40.59-106.95-36.17c-13.17,1.42-25.95,6.52-38.91,9.94
			c-0.58,1.47-1.17,2.94-1.75,4.42c24.08,23.11,48.57,45.81,72.14,69.43c32.44,32.49,64.48,65.38,96.11,98.65
			c16.63,17.5,33.21,35.27,47.69,54.53c18,23.94,27.03,51.87,31.4,81.7c6.1,41.64-1.09,80.71-19.76,117.82
			c-6.21,12.35-14.58,23.62-22.43,36.11c6,6.5,12.36,13.66,19.02,20.53c17.49,18.02,35,36.03,52.76,53.78
			c4.98,4.97,5.08,8.8-0.03,13.59c-11.44,10.71-22.67,21.65-33.9,32.59c-3.69,3.6-7.29,4.3-11.05,0.4
			c-18.59-19.29-37.15-38.62-55.73-57.93c-2.57-2.67-5.2-5.3-7.8-7.95c-39.14-39.94-78.33-79.84-117.41-119.85
			c-29.09-29.78-58.22-59.52-86.99-89.6c-21.86-22.84-44.34-45.24-64.44-69.56c-21.57-26.1-33.06-57.17-37.4-91
			c-3.5-27.36-1.45-54.09,5.48-80.62c2.75-10.52,9.47-12.65,17.08-5.14c10.78,10.63,21.44,21.38,32.16,32.07
			c5.42,5.4,8.71,11.24,7.93,19.56c-2.17,23.19,2.22,45.49,13.52,65.75c6.97,12.5,15.14,24.79,24.86,35.23
			c23.9,25.68,49.06,50.17,73.6,75.26c30.13,30.8,60.17,61.68,90.17,92.6c10.3,10.62,20.37,21.48,32.35,34.14
			c6.22-11.95,13.07-22.06,17-33.2c19.04-53.98,8.02-101.45-32.16-142.4c-46.95-47.84-93.58-96-140.31-144.05
			c-26.63-27.38-53.14-54.87-79.78-82.24c-30.24-31.07-60.54-62.09-90.89-93.06c-5.09-5.19-6.02-9.55-0.03-15.01
			c11.56-10.55,22.76-21.51,33.89-32.52c4.63-4.57,7.75-2.52,11.4,1.21c23.37,23.86,47.02,47.45,70.15,71.54
			c4.97,5.17,8.33,5.13,14.42,1.84c25.26-13.62,52.18-21.01,81.11-22.83c37.27-2.35,72.45,4.59,104.73,22.33
			c53.7,29.52,87.69,74.66,99.64,135.28C797.97,403.74,798.51,416.82,800.13,431.35z"/>
		<path class="st0" d="M599.99,838.89c-74.3-0.63-130.73-33.53-169.33-96.42c-17.35-28.27-25.44-59.85-26.35-93.18
			c-0.18-6.82,2.58-9.26,9-9.03c16.22,0.59,32.43,1.15,48.66,1.46c5.11,0.1,5.87,2.69,6.2,7.04c3.57,46.38,23.97,83.28,64.03,107.48
			c12.86,7.77,28.66,10.51,42.39,17.06c7.6,3.62,14.21,9.85,20.38,15.82c10.83,10.49,21.2,21.5,31.27,32.74
			c2.5,2.79,4.95,7.92,4,10.86c-0.91,2.8-6.12,5.39-9.74,5.89C613.78,839.55,606.84,838.89,599.99,838.89z"/>
	</g>
</g>
</svg>
